[img]http://img683.imageshack.us/img683/6286/conanju.jpg[/img]
[code]
Conan The Barbarian 2011 TS XViD - REVELATiON

IMDb URL.......... http://www.imdb.com/title/tt0816462/
IMDB Rating.......:5.7/10                                                                 
Runtime...........:1h 43mn
Subtitles.........:NIL
Language..........:ENGLISH
Resolution........:720 x 304                                      

VIDEO:
Russian PROPER .... thank you
AUDIO: thank you


VIDEO:
ID                               : 0
Format                           : MPEG-4 Visual
Format profile                   : Advanced Simple@L5
Format settings, BVOP            : 2
Format settings, QPel            : No
Format settings, GMC             : No warppoints
Format settings, Matrix          : Default (H.263)
Muxing mode                      : Packed bitstream
Codec ID                         : XVID
Codec ID/Hint                    : XviD
Duration                         : 1h 43mn
Bit rate                         : 1 766 Kbps
Width                            : 720 pixels
Height                           : 304 pixels
Display aspect ratio             : 2.35:1
Frame rate                       : 25.000 fps
Color space                      : YUV
Chroma subsampling               : 4:2:0
Bit depth                        : 8 bits
Scan type                        : Progressive
Compression mode                 : Lossy
Bits/(Pixel*Frame)               : 0.323
Stream size                      : 1.27 GiB (93%)
Writing library                  : XviD 64

AUDIO:
ID                               : 1
Format                           : MPEG Audio
Format version                   : Version 1
Format profile                   : Layer 3
Mode                             : Joint stereo
Mode extension                   : MS Stereo
Codec ID                         : 55
Codec ID/Hint                    : MP3
Duration                         : 1h 43mn
Bit rate mode                    : Constant
Bit rate                         : 128 Kbps
Channel(s)                       : 2 channels
Sampling rate                    : 44.1 KHz
Compression mode                 : Lossy
Stream size                      : 94.5 MiB (7%)
Alignment                        : Split accross interleaves
Interleave, duration             : 40 ms (1.00 video frame)

Plot:
The tale of Conan the Cimmerian and his adventures across the continent of Hyboria on a quest to avenge the murder of his father and the slaughter of his village.
[/code]
Screens:
[img]http://img823.imageshack.us/img823/9874/53695083.png[/img]
[img]http://img839.imageshack.us/img839/3438/11435791.png[/img]
[img]http://img202.imageshack.us/img202/8905/65904116.png[/img]
[img]http://img689.imageshack.us/img689/9823/62861031.png[/img]